<svg width="19" height="20" viewBox="0 0 19 20" fill="none" xmlns="http://www.w3.org/2000/svg">
<path d="M9.50017 10C12.8831 10 15.1888 11.5966 16.675 13.5752C18.1475 15.5358 18.8228 17.8753 18.9972 19.4443C19.0277 19.7186 18.8301 19.9664 18.5558 19.9971C18.2816 20.0274 18.0338 19.8298 18.0031 19.5557C17.8441 18.1248 17.219 15.9639 15.8752 14.1748C14.5446 12.4036 12.5169 11 9.50017 11C6.48351 11.0001 4.45566 12.4036 3.12517 14.1748C1.7814 15.9639 1.15622 18.1248 0.997237 19.5557C0.966523 19.8299 0.718806 20.0275 0.444502 19.9971C0.170372 19.9663 -0.0273642 19.7186 0.00309615 19.4443C0.17751 17.8753 0.85285 15.5358 2.32536 13.5752C3.81149 11.5966 6.11725 10.0001 9.50017 10Z" fill="#F2EEE7"/>
<circle cx="9.5" cy="5.5" r="5" stroke="#F2EEE7"/>
</svg>
